{"title":"12 Rounds 2009 DVDRip Xvid BigPerm LKRG","uid":6659437,"size":1191728425,"categoryP":"video","categoryS":"movies","magnet":"?xt=urn:btih:e8bd509164008843f85a29616edd84f23364891b&amp;dn=12+Rounds+2009+DVDRip+Xvid+BigPerm+LKRG&amp;tr=udp%3A%2F%2Ftracker.openbittorrent.com%3A80&amp;tr=udp%3A%2F%2Fopen.demonii.com%3A1337&amp;tr=udp%3A%2F%2Ftracker.coppersurfer.tk%3A6969&amp;tr=udp%3A%2F%2Fexodus.desync.com%3A6969","seeders":1,"leechers":0,"uploader":".BONE.","files":2,"time":1315458516,"description":"PLOT\n\nDetective Danny Fisher discovers his girlfriend has been kidnapped by a ex-con tied\nto Fisher's past, and he'll have to successfully complete 12 challenges in order to\nsecure her safe release.\n\nEncoded By .......: BigPerm1828\nRuntime ..........: 1h 49mn\nFile Size ........: 1.11 GB\nResolution .......: 704 x 396\nIMDb URL .........: http://www.imdb.com/title/tt1160368/\nGenre ............: Action | Crime | Thriller\nLanguage .........: English\nSubtitles ........: None\nVideo\nID : 0\nFormat : MPEG-4 Visual\nFormat profile : Advanced Simple@L5\nFormat settings, BVOP : Yes\nFormat settings, QPel : No\nFormat settings, GMC : No warppoints\nFormat settings, Matrix : Default (H.263)\nCodec ID : XVID\nCodec ID/Hint : XviD\nDuration : 1h 49mn\nBit rate : 51.9 Kbps\nWidth : 704 pixels\nHeight : 396 pixels\nDisplay aspect ratio : 16:9\nFrame rate : 23.976 fps\nColor space : YUV\nChroma subsampling : 4:2:0\nBit depth : 8 bits\nScan type : Progressive\nCompression mode : Lossy\nBits/(Pixel*Frame) : 0.008\nStream size : 40.5 MiB (4%)\nWriting library : XviD 1.2.1 (UTC 2008-12-04)\n\nAudio\nID : 1\nFormat : AC-3\nFormat/Info : Audio Coding 3\nCodec ID : 2000\nDuration : 1h 49mn\nBit rate mode : Constant\nBit rate : 448 Kbps\nChannel(s) : 6 channels\nSampling rate : 48.0 KHz\nBit depth : 16 bits\nCompression mode : Lossy\nStream size : 350 MiB (31%)\nAlignment : Aligned on interleaves\n\n\n","torrent":{"xt":"urn:btih:e8bd509164008843f85a29616edd84f23364891b","amp;dn":"12+Rounds+2009+DVDRip+Xvid+BigPerm+LKRG","amp;tr":["udp%3A%2F%2Ftracker.openbittorrent.com%3A80","udp%3A%2F%2Fopen.demonii.com%3A1337","udp%3A%2F%2Ftracker.coppersurfer.tk%3A6969","udp%3A%2F%2Fexodus.desync.com%3A6969"],"infoHash":"e8bd509164008843f85a29616edd84f23364891b","infoHashBuffer":{"type":"Buffer","data":[232,189,80,145,100,0,136,67,248,90,41,97,110,221,132,242,51,100,137,27]},"announce":[],"urlList":[]}}